<svg width="51" height="51" viewBox="0 0 51 51" fill="none" xmlns="http://www.w3.org/2000/svg">
<path fill-rule="evenodd" clip-rule="evenodd" d="M25.5001 6.3749C26.1341 6.3749 26.7422 6.62677 27.1905 7.0751C27.6388 7.52343 27.8907 8.1315 27.8907 8.76553L27.8907 36.4649L38.1544 26.2012C38.6076 25.7789 39.207 25.549 39.8264 25.5599C40.4457 25.5708 41.0366 25.8217 41.4746 26.2597C41.9126 26.6977 42.1635 27.2887 42.1744 27.908C42.1854 28.5273 41.9555 29.1267 41.5332 29.5799L27.1894 43.9237C26.7412 44.3713 26.1336 44.6228 25.5001 44.6228C24.8665 44.6228 24.2589 44.3713 23.8107 43.9237L9.46694 29.5799C9.04466 29.1267 8.81476 28.5273 8.82569 27.908C8.83662 27.2887 9.08751 26.6977 9.52552 26.2597C9.96352 25.8217 10.5544 25.5708 11.1738 25.5599C11.7931 25.549 12.3925 25.7789 12.8457 26.2012L23.1094 36.4649L23.1094 8.76553C23.1094 8.1315 23.3613 7.52343 23.8096 7.0751C24.258 6.62677 24.866 6.3749 25.5001 6.3749Z" fill="white"/>
</svg>
