<svg width="612" height="151" viewBox="0 0 612 151" fill="none" xmlns="http://www.w3.org/2000/svg">
<g clip-path="url(#clip0_199_1247)">
<path d="M110.736 72.5481L120.575 74.9687C121.365 75.1631 122.191 74.6634 122.366 73.8414L122.899 71.6748C122.994 71.2894 122.932 70.8822 122.726 70.5427C122.521 70.2032 122.189 69.9592 121.804 69.8644L111.99 67.4501C111.2 67.2558 110.374 67.7554 110.174 68.5711L109.641 70.7378C109.446 71.528 109.92 72.3475 110.736 72.5481ZM120.945 41.2689L118.575 40.6857C117.784 40.4913 117.285 39.6655 117.479 38.8753L118.018 36.6832C118.219 35.8675 119.039 35.3933 119.829 35.5877L122.199 36.1709L122.782 33.8003C122.977 33.0101 123.803 32.5104 124.593 32.7048L126.759 33.2378C127.575 33.4385 128.075 34.2643 127.88 35.0545L127.297 37.425L129.642 38.0019C130.458 38.2026 130.932 39.0221 130.738 39.8123L130.205 41.979C130.03 42.8009 129.204 43.3006 128.414 43.1062L126.043 42.523L125.466 44.8681C125.266 45.6838 124.44 46.1835 123.65 45.9891L121.457 45.4498C120.667 45.2554 120.168 44.4296 120.362 43.6394L120.945 41.2689Z" fill="#A7DBEF"/>
<path d="M119.164 14.4466C119.767 11.9944 122.238 10.4992 124.69 11.1025L136.976 14.125C139.428 14.7283 140.924 17.1992 140.32 19.6514L140.164 20.2886L145.465 21.593C146.393 21.8201 147.267 22.2281 148.037 22.7934C148.807 23.3587 149.458 24.0704 149.952 24.8876C150.447 25.7048 150.775 26.6115 150.919 27.5558C151.062 28.5001 151.018 29.4634 150.789 30.3907L136.692 87.6922C136.465 88.6199 136.057 89.4938 135.492 90.2637C134.927 91.0336 134.215 91.6844 133.398 92.1789C132.58 92.6734 131.674 93.0019 130.729 93.1455C129.785 93.2891 128.822 93.2451 127.895 93.0159L96.134 85.2024C95.2063 84.9753 94.3324 84.5673 93.5625 84.002C92.7926 83.4366 92.1418 82.725 91.6473 81.9078C91.1528 81.0906 90.8243 80.1839 90.6807 79.2396C90.5371 78.2953 90.5811 77.3319 90.8103 76.4047L104.907 19.1032C105.134 18.1754 105.542 17.3016 106.108 16.5317C106.673 15.7618 107.385 15.111 108.202 14.6165C109.019 14.122 109.926 13.7935 110.87 13.6499C111.814 13.5063 112.778 13.5503 113.705 13.7795L119.007 15.0838L119.164 14.4466ZM124.099 16.3635L122.851 21.436L112.451 18.8775C112.193 18.813 111.925 18.8002 111.662 18.8398C111.399 18.8793 111.147 18.9706 110.92 19.1081C110.692 19.2457 110.495 19.4269 110.338 19.6413C110.181 19.8557 110.068 20.0991 110.005 20.3574L109.228 23.5181L144.914 32.2973L145.691 29.1365C145.756 28.8788 145.768 28.6108 145.729 28.348C145.689 28.0852 145.598 27.8329 145.461 27.6056C145.323 27.3782 145.142 27.1803 144.927 27.0234C144.713 26.8664 144.47 26.7534 144.211 26.691L133.811 24.1325L135.059 19.06L124.099 16.3635ZM97.313 71.9491L132.999 80.7283L144.286 34.8463L108.601 26.0671L97.313 71.9491ZM96.6859 74.4981L95.9083 77.6588C95.6399 78.7498 96.2972 79.836 97.3882 80.1044L129.149 87.9179C130.24 88.1863 131.326 87.529 131.594 86.438L132.372 83.2773L96.6859 74.4981Z" fill="#A7DBEF"/>
</g>
<g clip-path="url(#clip1_199_1247)">
<path d="M57.5185 120.444L67.0136 116.907C67.7761 116.623 68.1774 115.745 67.8596 114.967L67.0807 112.876C66.9422 112.504 66.6616 112.203 66.3007 112.038C65.9398 111.873 65.5282 111.858 65.1563 111.996L55.6858 115.524C54.9232 115.808 54.5219 116.686 54.8151 117.473L55.594 119.564C55.8781 120.327 56.7313 120.737 57.5185 120.444ZM48.352 88.8432L46.0644 89.6954C45.3018 89.9795 44.424 89.5781 44.1399 88.8156L43.3519 86.7001C43.0587 85.9129 43.4691 85.0597 44.2317 84.7757L46.5194 83.9235L45.6672 81.6358C45.3831 80.8732 45.7845 79.9954 46.547 79.7114L48.6379 78.9325C49.4251 78.6393 50.3029 79.0406 50.5869 79.8031L51.4391 82.0908L53.7022 81.2478C54.4894 80.9546 55.3426 81.3651 55.6266 82.1276L56.4055 84.2185C56.7233 84.9965 56.322 85.8743 55.5595 86.1584L53.2718 87.0106L54.1148 89.2736C54.408 90.0608 54.0067 90.9386 53.2441 91.2227L51.1287 92.0107C50.3661 92.2948 49.4883 91.8935 49.2042 91.1309L48.352 88.8432Z" fill="#6FDB77"/>
<path d="M31.7831 67.6756C30.9016 65.3092 32.1025 62.6825 34.4689 61.801L46.3254 57.3843C48.6918 56.5028 51.3185 57.7037 52.2 60.0701L52.4291 60.685L57.5456 58.7791C58.4404 58.4447 59.3922 58.29 60.3468 58.324C61.3014 58.358 62.2399 58.5799 63.1085 58.977C63.9772 59.3742 64.7591 59.9388 65.4093 60.6385C66.0595 61.3382 66.5653 62.1592 66.8977 63.0547L87.4968 118.353C87.8312 119.247 87.9858 120.199 87.9518 121.154C87.9179 122.108 87.696 123.047 87.2988 123.915C86.9017 124.784 86.3371 125.566 85.6374 126.216C84.9377 126.866 84.1166 127.372 83.2212 127.705L52.5712 139.122C51.6764 139.457 50.7245 139.611 49.77 139.577C48.8154 139.543 47.8769 139.321 47.0082 138.924C46.1396 138.527 45.3577 137.962 44.7075 137.263C44.0573 136.563 43.5515 135.742 43.2191 134.846L22.62 79.5486C22.2856 78.6539 22.131 77.702 22.165 76.7474C22.1989 75.7929 22.4208 74.8544 22.818 73.9857C23.2151 73.117 23.7797 72.3352 24.4794 71.685C25.1791 71.0348 26.0002 70.529 26.8956 70.1965L32.0122 68.2906L31.7831 67.6756ZM36.9411 66.4825L38.7646 71.3776L28.7283 75.1163C28.4789 75.208 28.2502 75.3483 28.0553 75.5289C27.8604 75.7095 27.7031 75.9269 27.5926 76.1686C27.4821 76.4102 27.4206 76.6714 27.4115 76.937C27.4024 77.2025 27.446 77.4673 27.5398 77.7159L28.676 80.7662L63.1142 67.9376L61.978 64.8873C61.8862 64.638 61.7459 64.4092 61.5653 64.2143C61.3847 64.0194 61.1673 63.8622 60.9257 63.7517C60.684 63.6412 60.4228 63.5796 60.1573 63.5706C59.8917 63.5615 59.6269 63.6051 59.3783 63.6988L49.342 67.4374L47.5185 62.5423L36.9411 66.4825ZM46.0862 127.504L80.5244 114.675L64.0305 70.3975L29.5923 83.226L46.0862 127.504ZM47.0026 129.964L48.1388 133.014C48.531 134.067 49.6857 134.595 50.7385 134.202L81.3885 122.785C82.4413 122.393 82.9692 121.238 82.577 120.185L81.4408 117.135L47.0026 129.964Z" fill="#6FDB77"/>
</g>
<line x1="184" y1="52" x2="612" y2="52" stroke="#A7DBEF" stroke-width="4"/>
<line x1="154" y1="84" x2="582" y2="84" stroke="#6FDB77" stroke-width="4"/>
<defs>
<clipPath id="clip0_199_1247">
<rect width="84" height="84" fill="white" transform="translate(90.5488) rotate(13.821)"/>
</clipPath>
<clipPath id="clip1_199_1247">
<rect width="84" height="84" fill="white" transform="translate(0 71.8398) rotate(-20.4309)"/>
</clipPath>
</defs>
</svg>
