<svg width="628" height="202" viewBox="0 0 628 202" fill="none" xmlns="http://www.w3.org/2000/svg">
<g clip-path="url(#clip0_199_1248)">
<path d="M500.267 33.166C499.714 33.0575 499.141 33.1731 498.673 33.4874C498.205 33.8017 497.882 34.2889 497.773 34.8419C497.665 35.395 497.78 35.9684 498.095 36.4362C498.409 36.904 498.896 37.2277 499.449 37.3363C503.965 38.2225 506.918 42.6175 506.032 47.1339C505.924 47.6869 506.039 48.2603 506.354 48.7281C506.668 49.1959 507.155 49.5196 507.708 49.6282C508.261 49.7367 508.835 49.6211 509.302 49.3068C509.77 48.9925 510.094 48.5052 510.202 47.9522C510.839 44.6747 510.151 41.2786 508.289 38.5074C506.427 35.7362 503.542 33.8155 500.267 33.166ZM503.95 14.4C486.702 11.0152 469.92 22.2909 466.536 39.539C465.32 45.736 465.979 52.0845 468.44 57.9506L468.663 58.5791C474.141 70.9402 474.805 74.6392 474.175 77.8503L471.72 90.361C471.503 91.467 471.734 92.6139 472.363 93.5495C472.992 94.485 473.966 95.1325 475.072 95.3496L483.413 96.9863C483.2 98.0706 483.446 99.2449 484.041 100.185C484.686 101.091 485.68 101.762 486.764 101.975C487.849 102.188 489.023 101.942 489.963 101.347C490.869 100.702 491.54 99.7073 491.753 98.623L500.094 100.26C501.2 100.477 502.346 100.246 503.282 99.617C504.218 98.9884 504.865 98.0139 505.082 96.9079L507.537 84.3972C508.177 81.1361 510.185 77.9442 519.864 68.6311C524.604 64.1142 527.827 58.239 529.089 51.8145C532.474 34.5664 521.198 17.7847 503.95 14.4ZM497.56 91.1009L480.879 87.8275L481.697 83.6572L498.378 86.9307L497.56 91.1009ZM513.977 62.504C506.151 70.0326 502.349 74.4662 500.474 78.6802L495.845 77.7719L497.482 69.4314C497.699 68.3254 497.467 67.1784 496.839 66.2429C496.21 65.3073 495.236 64.6598 494.13 64.4428C493.024 64.2257 491.877 64.457 490.941 65.0855C490.006 65.7141 489.358 66.6886 489.141 67.7947L487.504 76.1351L482.863 75.2243C482.705 70.7325 480.918 65.3149 476.7 55.7387L476.484 55.1378C474.515 50.7627 473.953 45.884 474.876 41.1757C477.358 28.5274 489.665 20.2583 502.313 22.7404C514.962 25.2225 523.231 37.5294 520.749 50.1777C519.821 54.8881 517.455 59.1947 513.977 62.504Z" fill="#6FDB77"/>
</g>
<g clip-path="url(#clip1_199_1248)">
<path d="M551.037 108.078C550.521 108.305 550.117 108.728 549.913 109.253C549.708 109.778 549.721 110.363 549.948 110.879C550.175 111.395 550.598 111.799 551.123 112.003C551.648 112.208 552.233 112.195 552.749 111.968C556.961 110.114 561.896 112.033 563.75 116.246C563.977 116.762 564.4 117.166 564.925 117.37C565.45 117.575 566.035 117.562 566.551 117.335C567.067 117.108 567.471 116.685 567.675 116.16C567.88 115.635 567.867 115.05 567.64 114.534C566.289 111.481 563.784 109.087 560.672 107.877C557.56 106.667 554.096 106.74 551.037 108.078ZM543.335 90.5738C527.246 97.6531 519.919 116.497 526.998 132.585C529.542 138.365 533.711 143.198 539.083 146.605L539.625 146.994C551.185 154.007 553.844 156.663 555.162 159.658L560.297 171.327C560.751 172.359 561.596 173.168 562.646 173.577C563.697 173.985 564.866 173.959 565.898 173.506L573.678 170.082C574.123 171.094 574.996 171.917 576.021 172.348C577.068 172.723 578.268 172.705 579.279 172.26C580.291 171.815 581.114 170.942 581.545 169.917C581.92 168.87 581.903 167.67 581.457 166.659L589.237 163.236C590.269 162.782 591.078 161.936 591.486 160.886C591.895 159.836 591.869 158.666 591.415 157.634L586.28 145.965C584.942 142.923 584.766 139.156 587.386 125.982C588.695 119.567 587.982 112.904 585.346 106.91C578.266 90.8218 559.423 83.4944 543.335 90.5738ZM581.924 157.168L566.365 164.014L564.653 160.124L580.212 153.278L581.924 157.168ZM579.054 124.318C576.934 134.969 576.347 140.78 577.217 145.31L572.899 147.21L569.476 139.43C569.022 138.398 568.177 137.589 567.126 137.181C566.076 136.772 564.906 136.798 563.874 137.252C562.843 137.706 562.034 138.551 561.625 139.601C561.217 140.652 561.242 141.822 561.696 142.853L565.12 150.633L560.79 152.538C558.094 148.942 553.531 145.517 544.597 140.07L544.077 139.7C539.96 137.235 536.711 133.553 534.778 129.162C529.587 117.364 534.96 103.545 546.758 98.3534C558.556 93.162 572.375 98.5356 577.566 110.333C579.497 114.729 580.017 119.615 579.054 124.318Z" fill="#A7DBEF"/>
</g>
<line y1="-2" x2="428" y2="-2" transform="matrix(-1 0 0 1 474 128)" stroke="#A7DBEF" stroke-width="4"/>
<line y1="-2" x2="428" y2="-2" transform="matrix(-1 0 0 1 428 92)" stroke="#6FDB77" stroke-width="4"/>
<defs>
<clipPath id="clip0_199_1248">
<rect width="101.995" height="101.995" fill="white" transform="translate(452.641) rotate(11.1026)"/>
</clipPath>
<clipPath id="clip1_199_1248">
<rect width="101.995" height="101.995" fill="white" transform="translate(493 108.08) rotate(-23.751)"/>
</clipPath>
</defs>
</svg>
