<svg width="93" height="51" viewBox="0 0 93 51" fill="none" xmlns="http://www.w3.org/2000/svg">
<path fill-rule="evenodd" clip-rule="evenodd" d="M19.9859 15.9505L23.3264 8.75664C7.9494 11.123 -0.422768 28.3584 7.56037 41.9873L9.21807 44.8173L7.49233 45.8282L5.83464 42.9981C-2.83046 28.205 6.18419 9.51335 22.8123 6.81296L15.0544 3.21062L15.8967 1.39664L24.8199 5.5401L24.82 5.53999L26.634 6.3823L21.7999 16.7928L19.9859 15.9505Z" fill="#A7DBEF"/>
<path fill-rule="evenodd" clip-rule="evenodd" d="M74.7229 36.2776L74.0865 44.4864C87.5514 36.4628 89.1729 17.2465 76.7679 7.14136L74.7135 5.4679L75.9767 3.91727L78.031 5.59073C91.3468 16.4378 89.8006 36.9388 75.6756 45.858L83.799 46.4878L83.6444 48.4818L73.8356 47.7213L73.8356 47.7214L71.8416 47.5668L72.7289 36.123L74.7229 36.2776Z" fill="#A7DBEF"/>
<path d="M33.3996 35.752H29.1996L28.8746 27.902C28.8246 26.352 28.7662 25.177 28.6996 24.377H28.6246C28.4246 25.0103 28.1912 25.9936 27.9246 27.327L27.7996 27.952L26.0746 35.752H21.8746L20.4246 28.727L20.1746 27.477C19.8246 25.927 19.5829 24.8936 19.4496 24.377H19.3746C19.3079 25.2103 19.2496 26.5686 19.1996 28.452C19.1829 28.5686 19.1746 28.752 19.1746 29.002L18.9496 35.752H14.7246L15.3246 21.502H22.4746L23.6996 27.652L23.9996 29.302C24.1329 28.7853 24.2579 28.2103 24.3746 27.577L25.5246 21.502H32.8246L33.3996 35.752ZM41.5615 36.077C39.0781 36.077 37.2115 35.4936 35.9615 34.327C34.7281 33.1436 34.1115 31.252 34.1115 28.652C34.1115 26.102 34.7948 24.2436 36.1615 23.077C37.5281 21.9103 39.3365 21.327 41.5865 21.327C46.3198 21.327 48.6865 23.6853 48.6865 28.402C48.6865 30.7853 48.1031 32.6603 46.9365 34.027C45.7865 35.3936 43.9948 36.077 41.5615 36.077ZM41.4615 33.127C41.9281 33.127 42.3198 33.052 42.6365 32.902C42.9531 32.7353 43.2031 32.452 43.3865 32.052C43.7365 31.3686 43.9115 30.252 43.9115 28.702C43.9115 27.1853 43.7365 26.0853 43.3865 25.402C43.0365 24.702 42.3948 24.3353 41.4615 24.302C41.1115 24.302 40.7448 24.3436 40.3615 24.427C39.9948 24.4936 39.7615 24.5936 39.6615 24.727C39.4615 24.9603 39.3031 25.4603 39.1865 26.227C39.0865 26.977 39.0365 27.802 39.0365 28.702C39.0365 30.102 39.1698 31.127 39.4365 31.777C39.6198 32.2603 39.8781 32.6103 40.2115 32.827C40.5448 33.027 40.9615 33.127 41.4615 33.127ZM61.1009 35.277C60.4843 35.5436 59.7676 35.7353 58.9509 35.852C58.1343 35.9686 57.3759 36.027 56.6759 36.027C54.4093 36.027 52.6343 35.4353 51.3509 34.252C50.0676 33.0686 49.4259 31.252 49.4259 28.802C49.4259 26.302 50.1009 24.4353 51.4509 23.202C52.8009 21.952 54.7009 21.327 57.1509 21.327C58.3176 21.327 59.5343 21.4853 60.8009 21.802C60.8009 22.1353 60.7676 22.6353 60.7009 23.302C60.6343 23.952 60.5676 24.4103 60.5009 24.677H58.9259C57.7759 24.677 56.8676 24.702 56.2009 24.752C55.5509 24.7853 55.1593 24.8603 55.0259 24.977C54.7759 25.2103 54.5843 25.6853 54.4509 26.402C54.3176 27.102 54.2509 27.777 54.2509 28.427C54.2509 29.5603 54.3926 30.4353 54.6759 31.052C54.9593 31.652 55.3176 32.052 55.7509 32.252C56.1676 32.452 56.8593 32.552 57.8259 32.552C58.5926 32.552 59.5926 32.4853 60.8259 32.352L61.1009 35.277Z" fill="#A7DBEF"/>
<path d="M72.5598 19.4975L74.8901 18.4374L76.2897 17.6439C76.3326 17.6195 76.3696 17.5858 76.3978 17.5452C76.5972 17.2577 77.0481 17.4389 76.9931 17.7844L76.8228 18.8546L76.6431 19.9839C76.5866 20.3387 76.4921 20.6863 76.3612 21.0208L75.6945 22.7238L74.9044 24.4643C74.5933 25.1496 74.1315 25.7558 73.5535 26.2377L72.8508 26.8236L71.9814 27.4794C71.6355 27.7403 71.2255 27.9027 70.7947 27.9495L70.3028 28.0029C68.623 28.1853 67.4087 26.4344 68.1682 24.9251L68.6372 23.6951C68.865 23.0978 69.2051 22.5497 69.6393 22.0805L70.9604 20.6528C71.4115 20.1653 71.9552 19.7726 72.5598 19.4975Z" fill="#A7DBEF"/>
<path d="M67.2342 18.6862L65.4247 17.1859L64.3448 16.1022C64.3044 16.0617 64.2748 16.0116 64.2589 15.9566C64.1606 15.6179 63.6756 15.6332 63.5989 15.9775L63.3609 17.0462L63.1389 18.0433C63.053 18.4295 63.0131 18.8246 63.0203 19.2202L63.0498 20.8561L63.1714 22.4189C63.2376 23.2696 63.5205 24.0892 63.993 24.7997L64.3488 25.3348L64.8903 26.0605C65.1853 26.4557 65.5857 26.7596 66.0457 26.9374L66.7002 27.1903C68.2508 27.7895 69.8801 26.5184 69.6763 24.8686L69.6677 23.8168C69.6618 23.0914 69.4982 22.376 69.1881 21.7202L68.5629 20.398C68.2505 19.7371 67.7969 19.1528 67.2342 18.6862Z" fill="#A7DBEF"/>
<path d="M66.6119 23.8939C66.6119 23.3416 67.0597 22.8939 67.6119 22.8939H68.6762C68.8209 22.8939 68.9639 22.9253 69.0952 22.9859L70.5988 23.6798C70.9529 23.8433 71.1797 24.1977 71.1797 24.5878V35.5972C71.1797 36.1494 70.732 36.5972 70.1797 36.5972H67.6119C67.0597 36.5972 66.6119 36.1494 66.6119 35.5972V23.8939Z" fill="#A7DBEF"/>
</svg>
